<svg width="25" height="25" viewBox="0 0 25 25" fill="none" xmlns="http://www.w3.org/2000/svg">
<path d="M12.5686 0.78125C5.89146 0.78125 0.459229 6.21348 0.459229 12.8906C0.459229 19.5678 5.89146 25 12.5686 25C19.2458 25 24.678 19.5678 24.678 12.8906C24.678 6.21348 19.2458 0.78125 12.5686 0.78125ZM20.575 6.36553C22.0155 8.12559 22.8879 10.3673 22.9106 12.8086C22.5696 12.7365 19.15 12.0429 15.7084 12.4757C15.4275 11.7901 15.1625 11.187 14.7994 10.4438C18.6236 8.88242 20.3569 6.6605 20.575 6.36553ZM19.4251 5.16943C19.2391 5.43442 17.6821 7.52715 14.0042 8.90571C12.3092 5.79165 10.4307 3.23345 10.1448 2.85063C13.4249 2.05996 16.8814 2.91265 19.4251 5.16943ZM8.17119 3.5459C8.4439 3.91987 10.2922 6.48125 12.006 9.52778C7.16777 10.8126 2.9064 10.7941 2.4438 10.788C3.1145 7.57837 5.27749 4.91079 8.17119 3.5459ZM2.22534 12.9064C2.22534 12.8006 2.22744 12.6954 2.23062 12.5903C2.68315 12.5996 7.69546 12.6642 12.8608 11.1184C13.1569 11.6979 13.4397 12.2861 13.6994 12.8737C9.95918 13.9271 6.56099 16.9521 4.88438 19.8222C3.23237 17.9885 2.22534 15.563 2.22534 12.9064ZM6.21982 21.0662C7.30024 18.8576 10.2324 16.0065 14.4024 14.584C15.8545 18.3576 16.4551 21.5202 16.6089 22.4276C13.2831 23.8443 9.28394 23.4556 6.21982 21.0662ZM18.3478 21.4807C18.2417 20.8515 17.6912 17.8236 16.3384 14.1061C19.5796 13.5872 22.4272 14.4365 22.7811 14.5482C22.3201 17.4262 20.6682 19.9117 18.3478 21.4807Z" fill="black"/>
</svg>
