<svg width="23" height="23" viewBox="0 0 23 23" fill="none" xmlns="http://www.w3.org/2000/svg">
<path d="M9.78442 13.6973C9.78442 14.6396 9.10083 14.9375 8.26099 14.9375H6.05884V12.3545H8.30493C9.21313 12.3594 9.78442 12.7354 9.78442 13.6973ZM9.40845 9.67871C9.40845 8.81445 8.7395 8.60938 7.99731 8.60938H6.06372V10.7969H8.14868C8.88599 10.7969 9.40845 10.4746 9.40845 9.67871ZM15.8684 10.8115C14.9749 10.8115 14.3792 11.3682 14.3206 12.2617H17.3577C17.2747 11.3584 16.8059 10.8115 15.8684 10.8115ZM22.553 3.29688V20.4844C22.553 21.7783 21.5032 22.8281 20.2092 22.8281H3.02173C1.72778 22.8281 0.677979 21.7783 0.677979 20.4844V3.29688C0.677979 2.00293 1.72778 0.953125 3.02173 0.953125H20.2092C21.5032 0.953125 22.553 2.00293 22.553 3.29688ZM13.9446 8.42383H17.7434V7.50098H13.9446V8.42383ZM11.845 13.8096C11.845 12.6328 11.2883 11.6172 10.136 11.29C10.9758 10.8896 11.4153 10.4258 11.4153 9.4834C11.4153 7.61816 10.0237 7.16406 8.41724 7.16406H3.99829V16.5391H8.54419C10.2483 16.5293 11.845 15.7139 11.845 13.8096ZM19.2327 13.0869C19.2327 11.0801 18.0559 9.40527 15.9319 9.40527C13.8616 9.40527 12.4602 10.958 12.4602 12.999C12.4602 15.1133 13.7932 16.5635 15.9319 16.5635C17.553 16.5635 18.6028 15.8359 19.1106 14.2783H17.4651C17.2844 14.8594 16.5569 15.1621 15.9905 15.1621C14.8967 15.1621 14.3254 14.5225 14.3254 13.4385H19.218C19.2229 13.3262 19.2327 13.2041 19.2327 13.0869Z" fill="black"/>
</svg>
