<svg width="120" height="120" viewBox="0 0 120 120" fill="none" xmlns="http://www.w3.org/2000/svg">
<path d="M37.2184 73.3891V47.1349H38.6425V51.2647C38.8106 51.0816 38.9659 50.8871 39.1073 50.6826C40.2967 48.2149 42.8053 46.6576 45.5441 46.6883C48.791 46.5915 51.4295 47.7934 52.98 50.6826C53.9667 52.4774 54.5097 54.4823 54.5636 56.5298C54.6175 58.5773 54.1808 60.6079 53.2899 62.4522C51.8453 65.69 48.2772 67.2998 44.4572 66.7085C43.2684 66.6074 42.1239 66.2102 41.1281 65.5531C40.1322 64.896 39.3169 63.9999 38.7564 62.9467V73.388L37.2184 73.3891ZM38.6425 56.4221L38.9615 59.505C39.5243 63.0139 41.5988 65.0873 44.856 65.477C46.3856 65.7284 47.955 65.4417 49.2968 64.6655C50.6386 63.8894 51.6698 62.672 52.2144 61.2207C53.4813 58.2017 53.3879 54.7839 51.9638 51.8355C51.3825 50.5345 50.3935 49.4582 49.1464 48.769C47.8992 48.0799 46.4616 47.8154 45.0508 48.0156C43.7266 48.1119 42.4652 48.6183 41.4419 49.4643C40.4187 50.3104 39.6843 51.4541 39.3408 52.7366C39.0376 53.9503 38.8044 55.1805 38.6425 56.421V56.4221ZM83.6409 59.9903C83.4249 61.8388 82.5449 63.546 81.1646 64.7943C79.7842 66.0427 77.9974 66.7472 76.1366 66.7768C70.1646 67.0776 67.362 63.1119 66.9166 58.5355C66.6068 56.0502 67.0102 53.5282 68.0797 51.2636C68.8241 49.7101 70.0438 48.4339 71.5619 47.6199C73.0801 46.8059 74.8181 46.4964 76.5239 46.7362C78.1456 46.874 79.6829 47.5184 80.9182 48.5781C82.1535 49.6377 83.0243 51.0591 83.4073 52.6409C83.7107 54.0819 83.934 55.5386 84.0761 57.0043H68.3919C68.1014 61.1535 70.3309 64.4892 73.4912 65.2935C77.4273 66.2619 80.7916 64.5564 82.0129 60.814C82.284 59.8536 82.7785 59.718 83.6511 59.9903H83.6409ZM68.3805 55.6759H82.4093C82.3216 51.2556 79.5692 48.0429 75.8358 48.0064C71.6206 47.9381 68.5639 51.0221 68.3805 55.6759ZM86.5403 60.0871H87.9154C87.9659 61.1002 88.2949 62.0797 88.8661 62.9178C89.4373 63.756 90.2287 64.4204 91.1531 64.8378C92.3139 65.3602 93.5775 65.6141 94.8499 65.5805C96.1224 65.547 97.3708 65.2269 98.5025 64.6442C99.1193 64.3664 99.6361 63.906 99.9828 63.3251C100.33 62.7442 100.49 62.0709 100.441 61.3961C100.477 60.7454 100.299 60.1007 99.9354 59.56C99.5715 59.0193 99.0413 58.612 98.425 58.3999C96.9121 57.8371 95.3034 57.5272 93.762 57.0328C92.1581 56.5761 90.5897 56.0027 89.0694 55.3171C86.5858 54.1049 86.432 49.3838 89.2437 47.8891C90.6834 47.0767 92.3036 46.6377 93.9565 46.6123C95.6094 46.5868 97.2424 46.9756 98.7064 47.7433C100.522 48.7458 101.526 50.7703 101.228 52.8244H100.048C100.048 52.7674 99.9414 52.7173 99.9414 52.6592C99.7955 48.8996 96.6352 47.7239 93.2425 48.0543C92.2172 48.1682 91.2454 48.4781 90.334 48.9361C89.7861 49.1863 89.3296 49.6006 89.0275 50.1217C88.7254 50.6427 88.5928 51.2448 88.6479 51.8446C88.649 52.4448 88.8361 53.03 89.1833 53.5196C89.5305 54.0092 90.0209 54.3792 90.5869 54.5788C92.0679 55.1222 93.6401 55.4709 95.1724 55.8969L98.875 56.8653C99.7166 57.1415 100.454 57.6667 100.991 58.3714C101.528 59.076 101.838 59.927 101.88 60.8117C102.177 62.7997 101.163 64.7535 99.3695 65.6592C96.1317 67.4912 90.7988 67.007 88.4235 64.6909C87.2079 63.4684 86.53 61.8085 86.5437 60.086L86.5403 60.0871ZM119.328 52.8255H118.038C118.038 52.6512 117.97 52.4837 117.951 52.3504C117.93 51.3837 117.578 50.4535 116.953 49.7157C116.328 48.9779 115.468 48.4774 114.518 48.2981C112.726 47.784 110.814 47.8761 109.079 48.5601C108.393 48.7564 107.79 49.1694 107.358 49.7374C106.926 50.3055 106.69 50.9979 106.685 51.7113C106.66 52.4118 106.878 53.0993 107.302 53.6575C107.726 54.2157 108.33 54.6103 109.011 54.7748L114.906 56.2877C115.543 56.4406 116.171 56.6316 116.785 56.8596C118.665 57.5432 119.941 59.2885 119.998 61.2833C120.026 62.2598 119.758 63.2219 119.23 64.0434C118.701 64.8648 117.936 65.5071 117.036 65.8859C115.668 66.5074 114.185 66.8362 112.682 66.8513C111.18 66.8664 109.691 66.5675 108.31 65.9737C107.175 65.4842 106.217 64.6587 105.565 63.6083C104.914 62.5579 104.599 61.333 104.665 60.0985H105.925C106.399 62.3827 107.967 64.2853 110.119 65.1853C112.272 66.0853 114.729 65.8643 116.686 64.5974C117.273 64.2921 117.761 63.8248 118.091 63.251C118.421 62.6772 118.579 62.0208 118.548 61.3597C118.577 60.7084 118.393 60.0655 118.024 59.5282C117.654 58.991 117.12 58.5889 116.502 58.3828C114.989 57.82 113.38 57.5204 111.839 57.0157C110.226 56.5661 108.648 55.9991 107.118 55.3193C104.693 54.1265 104.5 49.4442 107.263 47.9506C108.721 47.1041 110.373 46.6494 112.058 46.6306C113.743 46.6118 115.405 47.0297 116.881 47.8435C117.725 48.3474 118.405 49.0858 118.837 49.9689C119.269 50.8521 119.435 51.8418 119.314 52.8175L119.328 52.8255ZM34.875 66.3029C34.3673 66.4949 33.807 66.4944 33.2997 66.3015C32.7924 66.1086 32.3732 65.7367 32.1214 65.2559L27.1086 58.3236L26.3818 57.3552L20.5647 65.2662C20.3276 65.7263 19.9312 66.0843 19.4494 66.2734C18.9676 66.4625 18.4335 66.4698 17.9467 66.2938L25.4408 56.2399L18.4685 47.1554C19.5029 46.7817 20.6559 47.1873 21.2312 48.1238L26.4262 55.1416L31.652 48.1511C31.8908 47.6989 32.2876 47.3503 32.7667 47.1716C33.2458 46.9928 33.774 46.9964 34.2506 47.1816L31.5449 50.7714L27.8799 55.5415C27.7782 55.6323 27.6968 55.7436 27.6411 55.8681C27.5854 55.9926 27.5565 56.1274 27.5565 56.2638C27.5565 56.4002 27.5854 56.535 27.6411 56.6595C27.6968 56.7839 27.7782 56.8952 27.8799 56.9861L34.8601 66.3029H34.875ZM66.6944 47.0586V48.4257C65.7138 48.3614 64.7306 48.5034 63.8083 48.8425C62.886 49.1817 62.0451 49.7105 61.3398 50.3947C60.6345 51.079 60.0805 51.9036 59.7135 52.8152C59.3466 53.7268 59.1749 54.7052 59.2095 55.6873C59.2095 58.8803 59.2095 62.0732 59.2095 65.2662V66.3519H57.823V47.144H59.1901V51.0802C60.8671 48.2092 63.4555 47.144 66.7035 47.0666L66.6944 47.0586ZM0.00227889 56.1145L0.612921 53.0989C2.28991 47.1361 9.12545 44.6547 13.8283 48.3482C16.5819 50.5105 17.2689 53.574 17.1344 57.0259H1.62116C1.37053 63.1916 5.81933 66.9147 11.5099 65.0144C13.3851 64.3309 14.7967 62.7724 15.2615 60.8356C15.5623 59.8673 16.059 59.7009 16.9681 59.9812C16.8165 61.1616 16.3992 62.2923 15.7476 63.2882C15.096 64.2841 14.2271 65.1193 13.2063 65.731C11.5197 66.6534 9.58459 67.0189 7.67775 66.7752C5.77091 66.5315 3.98995 65.6911 2.58953 64.3742C1.2042 62.8168 0.367981 60.8482 0.205067 58.769C0.205067 58.4272 0.0911409 58.1082 0.0113928 57.8006C0.00379779 57.2257 0 56.6637 0 56.1145H0.00227889ZM1.64053 55.6976H15.6693C15.5816 51.2283 12.7608 48.0577 8.99899 48.0281C4.81108 47.9711 1.81484 51.0722 1.63028 55.6782L1.64053 55.6976Z" fill="#1F2626"/>
</svg>
