<svg width="23" height="23" viewBox="0 0 23 23" fill="none" xmlns="http://www.w3.org/2000/svg">
<path d="M11.5181 6.28027C8.4126 6.28027 5.90771 8.78516 5.90771 11.8906C5.90771 14.9961 8.4126 17.501 11.5181 17.501C14.6235 17.501 17.1284 14.9961 17.1284 11.8906C17.1284 8.78516 14.6235 6.28027 11.5181 6.28027ZM11.5181 15.5381C9.51123 15.5381 7.8706 13.9023 7.8706 11.8906C7.8706 9.87891 9.50635 8.24316 11.5181 8.24316C13.5298 8.24316 15.1655 9.87891 15.1655 11.8906C15.1655 13.9023 13.5249 15.5381 11.5181 15.5381ZM18.6665 6.05078C18.6665 6.77832 18.0806 7.35938 17.3579 7.35938C16.6304 7.35938 16.0493 6.77344 16.0493 6.05078C16.0493 5.32812 16.6353 4.74219 17.3579 4.74219C18.0806 4.74219 18.6665 5.32812 18.6665 6.05078ZM22.3823 7.37891C22.2993 5.62598 21.8989 4.07324 20.6147 2.79395C19.3354 1.51465 17.7827 1.11426 16.0298 1.02637C14.2231 0.923828 8.80811 0.923828 7.00146 1.02637C5.25342 1.10938 3.70068 1.50977 2.4165 2.78906C1.13232 4.06836 0.736816 5.62109 0.648926 7.37402C0.546387 9.18066 0.546387 14.5957 0.648926 16.4023C0.731934 18.1553 1.13232 19.708 2.4165 20.9873C3.70068 22.2666 5.24854 22.667 7.00146 22.7549C8.80811 22.8574 14.2231 22.8574 16.0298 22.7549C17.7827 22.6719 19.3354 22.2715 20.6147 20.9873C21.894 19.708 22.2944 18.1553 22.3823 16.4023C22.4849 14.5957 22.4849 9.18555 22.3823 7.37891ZM20.0483 18.3408C19.6675 19.2979 18.9302 20.0352 17.9683 20.4209C16.5278 20.9922 13.1099 20.8604 11.5181 20.8604C9.92627 20.8604 6.50342 20.9873 5.06787 20.4209C4.11084 20.04 3.37354 19.3027 2.98779 18.3408C2.4165 16.9004 2.54834 13.4824 2.54834 11.8906C2.54834 10.2988 2.42139 6.87598 2.98779 5.44043C3.36865 4.4834 4.10596 3.74609 5.06787 3.36035C6.5083 2.78906 9.92627 2.9209 11.5181 2.9209C13.1099 2.9209 16.5327 2.79395 17.9683 3.36035C18.9253 3.74121 19.6626 4.47852 20.0483 5.44043C20.6196 6.88086 20.4878 10.2988 20.4878 11.8906C20.4878 13.4824 20.6196 16.9053 20.0483 18.3408Z" fill="black"/>
</svg>
