<svg width="120" height="106" viewBox="0 0 120 106" fill="none" xmlns="http://www.w3.org/2000/svg">
<g clip-path="url(#clip0_1_1839)">
<path d="M59.9999 63.6073C65.9173 63.6073 70.7142 58.8103 70.7142 52.893C70.7142 46.9757 65.9173 42.1787 59.9999 42.1787C54.0826 42.1787 49.2856 46.9757 49.2856 52.893C49.2856 58.8103 54.0826 63.6073 59.9999 63.6073Z" fill="#F5DE19"/>
<path d="M60 77.4582C47.122 77.7697 34.2763 76.0338 21.9429 72.3153C16.2455 70.5093 10.9317 67.6642 6.27 63.9239C4.49113 62.6461 3.00974 60.9987 1.92747 59.0945C0.845197 57.1904 0.18767 55.0746 0 52.8925C0 45.8082 7.78286 38.8653 20.82 34.3225C33.4831 30.2971 46.714 28.3462 60 28.5453C73.1087 28.3622 86.1623 30.2778 98.6657 34.2196C104.153 35.9689 109.286 38.6764 113.829 42.2168C115.577 43.4349 117.036 45.0227 118.103 46.8676C119.169 48.7125 119.817 50.7694 120 52.8925C120 60.2553 111.3 67.7168 97.2857 72.3539C85.1911 75.9512 72.6164 77.6726 60 77.4582ZM60 33.671C47.2891 33.5011 34.6321 35.3558 22.5043 39.1653C10.5043 43.3525 5.12571 49.0782 5.12571 52.8796C5.12571 56.8568 10.9071 63.1096 23.6014 67.451C35.4003 70.9904 47.6855 72.638 60 72.3325C72.0703 72.5483 84.1025 70.9151 95.6786 67.4896C108.857 63.1225 114.857 56.861 114.857 52.8925C114.641 51.5306 114.145 50.2283 113.4 49.068C112.655 47.9076 111.677 46.9144 110.529 46.151C106.465 43.0102 101.879 40.6106 96.9814 39.0625C85.0201 35.3071 72.5356 33.4871 60 33.671Z" fill="#F5DE19"/>
<path d="M35.6555 106.331C33.6562 106.377 31.6805 105.892 29.9298 104.925C23.7927 101.385 21.6669 91.1767 24.2426 77.6124C27.0826 64.6313 32.0032 52.1951 38.8141 40.7852C45.2029 29.3385 53.382 18.9877 63.0412 10.1252C67.2976 6.24538 72.2078 3.1504 77.5441 0.983791C79.4742 0.0792446 81.5797 -0.389648 83.7112 -0.389648C85.8428 -0.389648 87.9482 0.0792446 89.8784 0.983791C96.2598 4.66093 98.3727 15.9238 95.3941 30.3795C92.4665 42.6562 87.6736 54.4114 81.1827 65.2352C75.0187 76.5468 67.0971 86.8074 57.7141 95.6338C53.3032 99.6657 48.1841 102.846 42.6155 105.015C40.3862 105.843 38.033 106.287 35.6555 106.331ZM43.2541 43.3309C36.7574 54.2566 32.0412 66.1468 29.2827 78.5552C26.9127 91.0481 29.1884 98.5609 32.4969 100.472C35.9255 102.457 44.2484 100.575 54.3541 91.7467C63.3113 83.2907 70.8722 73.4689 76.7555 62.6466C82.9738 52.2989 87.5713 41.0601 90.3884 29.3209C93.1912 15.7138 90.7698 7.38236 87.3326 5.40236C86.0444 4.90876 84.6678 4.6878 83.2898 4.75346C81.9118 4.81911 80.5624 5.16995 79.3269 5.78379C74.577 7.74385 70.2101 10.5265 66.4269 14.0038C57.1984 22.4929 49.3856 32.4021 43.2841 43.3566L43.2541 43.3309Z" fill="#F5DE19"/>
<path d="M84.326 106.387C78.5188 106.387 71.1431 102.872 63.4631 96.2682C53.6347 87.3251 45.3173 76.8513 38.8331 65.2525C32.1077 53.9997 27.226 41.7434 24.3731 28.9482C23.1359 23.3189 22.9066 17.5147 23.696 11.8053C23.8785 9.68738 24.5234 7.63523 25.5853 5.79362C26.6471 3.95201 28.1001 2.36577 29.8417 1.14678C36.2145 -2.54322 47.0274 1.24963 58.0631 11.0468C67.2371 19.7133 75.0276 29.7355 81.1631 40.7639C87.8844 51.754 92.8173 63.7419 95.7774 76.2796C97.0679 82.1155 97.267 88.1399 96.3645 94.0482C96.1498 96.2271 95.4665 98.3338 94.3613 100.224C93.2561 102.114 91.7553 103.743 89.9617 104.998C88.2395 105.953 86.2944 106.432 84.326 106.387ZM43.2688 62.6725C49.4892 73.7572 57.4343 83.7812 66.806 92.3682C76.4445 100.661 84.0903 102.444 87.3774 100.511C90.806 98.5182 93.3345 90.3839 90.7288 77.2225C87.874 65.2522 83.1426 53.8092 76.7103 43.3182C70.8552 32.763 63.4191 23.1662 54.6603 14.8611C44.2717 5.63821 35.846 3.57678 32.4131 5.56535C31.3432 6.43484 30.4651 7.51674 29.8344 8.74272C29.2037 9.9687 28.8341 11.3121 28.7488 12.6882C28.0674 17.78 28.2894 22.9521 29.4045 27.9668C32.1487 40.2031 36.8306 51.9223 43.2731 62.6811L43.2688 62.6725Z" fill="#F5DE19"/>
</g>
<defs>
<clipPath id="clip0_1_1839">
<rect width="120" height="106" fill="white"/>
</clipPath>
</defs>
</svg>
