<svg width="120" height="120" viewBox="0 0 120 120" fill="none" xmlns="http://www.w3.org/2000/svg">

<g id="react-js">
<path d="M0 59.7974C0 69.273 8.84919 78.1189 22.8007 83.1049C20.0147 97.7701 22.3014 109.59 29.9391 114.196C37.79 118.93 49.4858 115.653 60.5867 105.507C71.4076 115.243 82.3439 119.075 89.9746 114.456C97.8178 109.709 100.203 97.087 97.3404 81.964C111.872 76.9405 120 69.3977 120 59.7974C120 50.5414 111.134 42.5338 97.3711 37.5796C100.453 21.8316 97.8416 10.2984 89.8877 5.50237C82.2193 0.878721 71.156 4.9087 60.176 14.9001C48.7532 4.29502 37.799 1.05714 29.8528 5.86712C22.1918 10.5039 20.0057 22.5388 22.8007 37.4756C9.32028 42.39 0 50.5784 0 59.7974Z" fill="white"/>
<path d="M94.4565 42.4993C93.351 42.1014 92.2054 41.7249 91.0259 41.3689C91.2198 40.5416 91.3977 39.725 91.5559 38.9223C94.1528 25.7416 92.4549 15.1232 86.6569 11.6271C81.0973 8.27488 72.005 11.7701 62.8223 20.1261C61.9393 20.9296 61.0538 21.7803 60.1687 22.6718C59.5789 22.0819 58.9901 21.5119 58.4028 20.9666C48.779 12.032 39.1327 8.26675 33.3404 11.7729C27.7861 15.1349 26.1413 25.1172 28.4789 37.6087C28.7046 38.8152 28.9685 40.0473 29.2669 41.3001C27.9016 41.7053 26.5836 42.1373 25.3226 42.5969C14.0397 46.71 6.83398 53.1562 6.83398 59.8427C6.83398 66.7485 14.5693 73.6751 26.3213 77.8751C27.2487 78.2065 28.211 78.5199 29.2028 78.8174C28.8808 80.1723 28.6009 81.5 28.3658 82.7951C26.1369 95.0697 27.8776 104.816 33.417 108.157C39.1388 111.607 48.7415 108.061 58.0921 99.5144C58.8311 98.8389 59.5729 98.1224 60.3159 97.3715C61.279 98.3412 62.2405 99.259 63.197 100.12C72.2541 108.269 81.1995 111.56 86.7339 108.21C92.4499 104.75 94.3076 94.2799 91.8958 81.5413C91.7116 80.5684 91.4973 79.5745 91.2566 78.5629C91.9309 78.3545 92.593 78.1393 93.2385 77.9155C105.456 73.683 113.405 66.8407 113.405 59.8427C113.405 53.132 105.967 46.6423 94.4565 42.4993Z" fill="#53C1DE"/>
<path d="M91.8052 73.3971C91.2225 73.5988 90.6246 73.7938 90.0153 73.9828C88.6665 69.5183 86.8462 64.7708 84.6187 59.8659C86.7444 55.0779 88.4943 50.3912 89.8053 45.9555C90.8955 46.2854 91.9536 46.6333 92.9732 47.0004C102.835 50.5502 108.851 55.7987 108.851 59.8427C108.851 64.1504 102.354 69.7424 91.8052 73.3971ZM87.4282 82.4659C88.4947 88.0987 88.647 93.1914 87.9406 97.1726C87.3059 100.75 86.0294 103.135 84.4512 104.09C81.0926 106.123 73.9104 103.481 66.1646 96.5114C65.2766 95.7124 64.3822 94.8593 63.485 93.9565C66.4878 90.5225 69.489 86.5304 72.4181 82.0968C77.57 81.6188 82.4374 80.8373 86.8514 79.7704C87.0688 80.6873 87.2619 81.5866 87.4282 82.4659ZM43.1649 103.739C39.8836 104.951 37.2702 104.985 35.6904 104.033C32.3288 102.006 30.9313 94.1802 32.8376 83.6829C33.0559 82.4808 33.3158 81.2459 33.6153 79.9836C37.9809 80.993 42.8126 81.7193 47.9769 82.1571C50.9257 86.4955 54.0135 90.4832 57.1253 93.9749C56.4454 94.6612 55.7682 95.3145 55.0948 95.9302C50.96 99.7093 46.8165 102.391 43.1649 103.739ZM27.7923 73.3707C22.5958 71.5136 18.3043 69.0999 15.3627 66.4661C12.7195 64.0992 11.385 61.7494 11.385 59.8427C11.385 55.7852 17.1705 50.6097 26.8197 47.0921C27.9905 46.6652 29.2161 46.263 30.488 45.8851C31.8216 50.4209 33.5709 55.1632 35.682 59.9586C33.5436 64.8252 31.7694 69.643 30.4228 74.2319C29.516 73.9594 28.6375 73.6726 27.7923 73.3707ZM32.9453 36.6946C30.9425 25.9922 32.2726 17.9188 35.6198 15.8928C39.1851 13.7346 47.069 16.8118 55.3784 24.5264C55.9095 25.0195 56.4428 25.5356 56.9775 26.0696C53.8811 29.546 50.8215 33.5038 47.8989 37.8166C42.8868 38.3024 38.0891 39.0827 33.6779 40.1276C33.4006 38.9611 33.1549 37.815 32.9453 36.6946ZM78.9151 48.5634C77.8606 46.6589 76.778 44.7994 75.6744 42.9907C79.0746 43.4401 82.3325 44.0368 85.3919 44.7669C84.4734 47.8448 83.3285 51.063 81.981 54.362C81.0143 52.4431 79.9918 50.5082 78.9151 48.5634ZM60.1687 29.4716C62.2687 31.8504 64.3716 34.5062 66.44 37.3878C64.3557 37.2849 62.2455 37.2313 60.1179 37.2313C58.0104 37.2313 55.9158 37.2837 53.8443 37.3848C55.9148 34.53 58.036 31.8777 60.1687 29.4716ZM41.3023 48.5963C40.2489 50.5062 39.2454 52.4306 38.2939 54.3585C36.9682 51.0709 35.834 47.8381 34.9075 44.7165C37.9481 44.005 41.1906 43.4233 44.5692 42.9823C43.45 44.8077 42.3585 46.6809 41.3023 48.5959V48.5963ZM44.6665 77.0427C41.1758 76.6355 37.8846 76.0837 34.8447 75.3919C35.786 72.2146 36.9452 68.9127 38.2991 65.5543C39.253 67.4808 40.2605 69.406 41.3203 71.32H41.3205C42.4001 73.27 43.5185 75.18 44.6665 77.0427ZM60.2947 90.5495C58.1369 88.1152 55.9846 85.4224 53.8826 82.526C55.9232 82.6097 58.0036 82.6525 60.1179 82.6525C62.2901 82.6525 64.4374 82.6014 66.551 82.503C64.4758 85.4516 62.3804 88.1485 60.2947 90.5495ZM82.0244 65.3831C83.4488 68.7778 84.6496 72.0624 85.603 75.1856C82.513 75.9227 79.1769 76.5163 75.6618 76.9574C76.7682 75.1243 77.8602 73.2329 78.9333 71.2873C80.019 69.3189 81.0497 67.3476 82.0244 65.3831ZM74.9898 68.9091C73.3239 71.9294 71.6136 74.8125 69.8773 77.534C66.7149 77.7704 63.4478 77.8922 60.1179 77.8922C56.8015 77.8922 53.5755 77.7845 50.4691 77.5737C48.6628 74.8165 46.9154 71.9248 45.2601 68.9351H45.2605C43.6096 65.9536 42.0901 62.9469 40.7133 59.957C42.0897 56.9602 43.6052 53.9501 45.2466 50.9739L45.2462 50.9745C46.892 47.9904 48.6241 45.1128 50.4137 42.3728C53.5831 42.1223 56.8332 41.9916 60.1177 41.9916H60.1179C63.4173 41.9916 66.6715 42.1233 69.8399 42.376C71.6022 45.0959 73.3225 47.9642 74.9748 50.9487C76.6458 53.9667 78.1808 56.9568 79.569 59.8894C78.185 62.8723 76.6534 65.8925 74.9898 68.9091ZM84.3813 15.7512C87.9501 17.9031 89.3379 26.5815 87.0957 37.9616C86.9527 38.6878 86.7916 39.4274 86.6167 40.1769C82.1953 39.1102 77.3941 38.3165 72.3674 37.8234C69.4391 33.4631 66.4046 29.4992 63.3586 26.0674C64.1776 25.2437 64.9953 24.4582 65.8097 23.717C73.6775 16.5577 81.031 13.7311 84.3813 15.7512Z" fill="white"/>
<path d="M60.1182 49.8923C65.3739 49.8923 69.6346 54.3472 69.6346 59.8428C69.6346 65.3381 65.3739 69.7932 60.1182 69.7932C54.8625 69.7932 50.6018 65.3381 50.6018 59.8428C50.6018 54.3472 54.8625 49.8923 60.1182 49.8923Z" fill="#53C1DE"/>
</g>


<g id="redux">
<g clip-path="url(#clip0_1_1816)">
<path d="M83.1473 82.6013C87.5756 82.1428 90.9352 78.3253 90.7823 73.7438C90.63 69.1627 86.812 65.4975 82.2309 65.4975H81.9258C77.1914 65.6503 73.5267 69.6207 73.6795 74.3546C73.8323 76.6453 74.7483 78.6305 76.1227 80.0049C70.9308 90.2368 62.9902 97.7194 51.0792 103.98C42.9858 108.256 34.5872 109.784 26.1886 108.715C19.3167 107.798 13.972 104.745 10.612 99.7046C5.72578 92.2219 5.26781 84.128 9.39093 76.0346C12.2925 70.2314 16.8731 65.9555 19.7747 63.8175C19.1639 61.8324 18.2475 58.4728 17.7895 56.0297C-4.35282 72.0643 -2.06204 93.7491 4.65703 103.98C9.69609 111.616 19.9275 116.35 31.2276 116.35C34.2816 116.35 37.3355 116.045 40.3898 115.282C59.9362 111.464 74.7487 99.8574 83.1473 82.6013ZM110.024 63.6652C98.4178 50.0738 81.315 42.5911 61.7686 42.5911H59.3255C57.9511 39.8424 55.0495 38.0096 51.8428 38.0096H51.5372C46.8037 38.1624 43.1391 42.1327 43.2914 46.8671C43.4442 51.4482 47.2617 55.1133 51.8428 55.1133H52.148C55.5075 54.9605 58.4091 52.8225 59.6306 49.921H62.3794C73.9852 49.921 84.9797 53.2805 94.9059 59.8472C102.541 64.8868 108.038 71.4535 111.092 79.3941C113.688 85.808 113.535 92.0691 110.787 97.4143C106.511 105.508 99.3342 109.936 89.8664 109.936C83.7581 109.936 77.9555 108.104 74.9011 106.729C73.2216 108.256 70.1672 110.7 68.0292 112.227C74.5959 115.281 81.315 116.961 87.7284 116.961C102.388 116.961 113.23 108.867 117.353 100.774C121.782 91.9163 121.476 76.6453 110.024 63.6652ZM32.4492 85.1968C32.602 89.7783 36.4195 93.443 41.0006 93.443H41.3062C46.0401 93.2907 49.7048 89.3199 49.552 84.586C49.3997 80.0044 45.5817 76.3397 41.0006 76.3397H40.6955C40.3898 76.3397 39.9314 76.3397 39.6267 76.4921C33.3656 66.1078 30.7697 54.8077 31.6861 42.5907C32.2964 33.428 35.3508 25.4869 40.6955 18.9202C45.1237 13.2699 53.6751 10.5211 59.4783 10.3688C75.6647 10.0632 82.5361 30.2208 82.9945 38.3147C84.9797 38.7727 88.3392 39.8419 90.63 40.6055C88.7972 15.8668 73.5267 3.03894 58.8675 3.03894C45.1237 3.03894 32.4492 12.9652 27.4097 27.6253C20.3855 47.1722 24.9666 65.9555 33.518 80.7685C32.7548 81.8372 32.2964 83.5172 32.4492 85.1972V85.1968Z" fill="#764ABC"/>
</g>
<defs>
<clipPath id="clip0_1_1816">
<rect width="120" height="120" fill="white"/>
</clipPath>
</defs>
</g>

<g id="react-nat">
<g clip-path="url(#clip0_1_1839)">
<path d="M59.9999 63.6073C65.9173 63.6073 70.7142 58.8103 70.7142 52.893C70.7142 46.9757 65.9173 42.1787 59.9999 42.1787C54.0826 42.1787 49.2856 46.9757 49.2856 52.893C49.2856 58.8103 54.0826 63.6073 59.9999 63.6073Z" fill="#F5DE19"/>
<path d="M60 77.4582C47.122 77.7697 34.2763 76.0338 21.9429 72.3153C16.2455 70.5093 10.9317 67.6642 6.27 63.9239C4.49113 62.6461 3.00974 60.9987 1.92747 59.0945C0.845197 57.1904 0.18767 55.0746 0 52.8925C0 45.8082 7.78286 38.8653 20.82 34.3225C33.4831 30.2971 46.714 28.3462 60 28.5453C73.1087 28.3622 86.1623 30.2778 98.6657 34.2196C104.153 35.9689 109.286 38.6764 113.829 42.2168C115.577 43.4349 117.036 45.0227 118.103 46.8676C119.169 48.7125 119.817 50.7694 120 52.8925C120 60.2553 111.3 67.7168 97.2857 72.3539C85.1911 75.9512 72.6164 77.6726 60 77.4582ZM60 33.671C47.2891 33.5011 34.6321 35.3558 22.5043 39.1653C10.5043 43.3525 5.12571 49.0782 5.12571 52.8796C5.12571 56.8568 10.9071 63.1096 23.6014 67.451C35.4003 70.9904 47.6855 72.638 60 72.3325C72.0703 72.5483 84.1025 70.9151 95.6786 67.4896C108.857 63.1225 114.857 56.861 114.857 52.8925C114.641 51.5306 114.145 50.2283 113.4 49.068C112.655 47.9076 111.677 46.9144 110.529 46.151C106.465 43.0102 101.879 40.6106 96.9814 39.0625C85.0201 35.3071 72.5356 33.4871 60 33.671Z" fill="#F5DE19"/>
<path d="M35.6555 106.331C33.6562 106.377 31.6805 105.892 29.9298 104.925C23.7927 101.385 21.6669 91.1767 24.2426 77.6124C27.0826 64.6313 32.0032 52.1951 38.8141 40.7852C45.2029 29.3385 53.382 18.9877 63.0412 10.1252C67.2976 6.24538 72.2078 3.1504 77.5441 0.983791C79.4742 0.0792446 81.5797 -0.389648 83.7112 -0.389648C85.8428 -0.389648 87.9482 0.0792446 89.8784 0.983791C96.2598 4.66093 98.3727 15.9238 95.3941 30.3795C92.4665 42.6562 87.6736 54.4114 81.1827 65.2352C75.0187 76.5468 67.0971 86.8074 57.7141 95.6338C53.3032 99.6657 48.1841 102.846 42.6155 105.015C40.3862 105.843 38.033 106.287 35.6555 106.331ZM43.2541 43.3309C36.7574 54.2566 32.0412 66.1468 29.2827 78.5552C26.9127 91.0481 29.1884 98.5609 32.4969 100.472C35.9255 102.457 44.2484 100.575 54.3541 91.7467C63.3113 83.2907 70.8722 73.4689 76.7555 62.6466C82.9738 52.2989 87.5713 41.0601 90.3884 29.3209C93.1912 15.7138 90.7698 7.38236 87.3326 5.40236C86.0444 4.90876 84.6678 4.6878 83.2898 4.75346C81.9118 4.81911 80.5624 5.16995 79.3269 5.78379C74.577 7.74385 70.2101 10.5265 66.4269 14.0038C57.1984 22.4929 49.3856 32.4021 43.2841 43.3566L43.2541 43.3309Z" fill="#F5DE19"/>
<path d="M84.326 106.387C78.5188 106.387 71.1431 102.872 63.4631 96.2682C53.6347 87.3251 45.3173 76.8513 38.8331 65.2525C32.1077 53.9997 27.226 41.7434 24.3731 28.9482C23.1359 23.3189 22.9066 17.5147 23.696 11.8053C23.8785 9.68738 24.5234 7.63523 25.5853 5.79362C26.6471 3.95201 28.1001 2.36577 29.8417 1.14678C36.2145 -2.54322 47.0274 1.24963 58.0631 11.0468C67.2371 19.7133 75.0276 29.7355 81.1631 40.7639C87.8844 51.754 92.8173 63.7419 95.7774 76.2796C97.0679 82.1155 97.267 88.1399 96.3645 94.0482C96.1498 96.2271 95.4665 98.3338 94.3613 100.224C93.2561 102.114 91.7553 103.743 89.9617 104.998C88.2395 105.953 86.2944 106.432 84.326 106.387ZM43.2688 62.6725C49.4892 73.7572 57.4343 83.7812 66.806 92.3682C76.4445 100.661 84.0903 102.444 87.3774 100.511C90.806 98.5182 93.3345 90.3839 90.7288 77.2225C87.874 65.2522 83.1426 53.8092 76.7103 43.3182C70.8552 32.763 63.4191 23.1662 54.6603 14.8611C44.2717 5.63821 35.846 3.57678 32.4131 5.56535C31.3432 6.43484 30.4651 7.51674 29.8344 8.74272C29.2037 9.9687 28.8341 11.3121 28.7488 12.6882C28.0674 17.78 28.2894 22.9521 29.4045 27.9668C32.1487 40.2031 36.8306 51.9223 43.2731 62.6811L43.2688 62.6725Z" fill="#F5DE19"/>
</g>
<defs>
<clipPath id="clip0_1_1839">
<rect width="120" height="106" fill="white"/>
</clipPath>
</defs></g>

<g id="html">
<path d="M22.9817 102.004L14.5554 7.5H107.143L98.7054 101.989L60.7929 112.5L22.9817 102.004Z" fill="#E44F26"/>
<path d="M60.8492 104.468L91.4867 95.9738L98.6942 15.2288H60.8492V104.468Z" fill="#F1662A"/>
<path d="M60.8492 50.2762H45.5117L44.4542 38.4075H60.8492V26.8162H31.7867L32.0642 29.9287L34.9104 61.8675H60.8492V50.2762ZM60.8492 80.3775L60.7967 80.3925L47.8892 76.9087L47.0642 67.665H35.4279L37.0517 85.86L60.7967 92.4525L60.8492 92.4375V80.3775Z" fill="#EBEBEB"/>
<path d="M60.8079 50.2762V61.8675H75.0804L73.7379 76.9012L60.8079 80.3887V92.4487L84.5717 85.86L84.7442 83.9025L87.4667 53.3887L87.7517 50.2762H60.8079ZM60.8079 26.8162V38.4075H88.8054L89.0379 35.805L89.5667 29.9287L89.8442 26.8162H60.8079Z" fill="white"/>

</g>

<g id="mongo">
<path d="M84.7409 47.7544C78.7206 19.869 66.1565 12.4436 62.9684 7.19463C61.2356 4.33931 59.4687 0 59.4687 0C59.296 2.47333 58.9897 4.03976 56.9795 5.91949C52.9537 9.68719 35.8456 24.3238 34.4086 56.0098C33.0684 85.5523 55.087 103.772 58.0134 105.655C60.2488 106.809 62.9867 105.677 64.2955 104.619C74.9069 96.9681 89.4237 76.5686 84.7279 47.7544" fill="#10AA50"/>
<path d="M60.3807 89.9189C59.8284 97.2345 59.4305 101.491 58.0249 105.663C58.0249 105.663 58.9515 112.624 59.5954 120H61.891C62.439 114.805 63.2754 109.648 64.396 104.556C61.4224 103.025 60.4932 96.3358 60.3807 89.9189Z" fill="#B8C4C2"/>
<path d="M64.3943 104.561C61.3894 103.104 60.5204 96.2809 60.3869 89.9189C61.1272 79.43 61.3413 68.9075 61.0282 58.395C60.8711 52.8795 61.1067 7.30163 59.7351 0.62915C60.29 1.93452 61.6302 5.00144 62.9704 7.19171C66.1716 12.4434 78.7252 19.8689 84.7403 47.757C89.4283 76.497 74.9979 96.8607 64.3943 104.561Z" fill="#12924F"/>

</g>

<g id="js">
<path d="M2.25488 0H117.745V120H2.25488V0Z" fill="#F7DF1E"/>
<path d="M32.6203 100.28L41.4584 94.7229C43.1635 97.8641 44.7145 100.522 48.435 100.522C52.0012 100.522 54.2496 99.0723 54.2496 93.4342V55.0913H65.1028V93.5936C65.1028 105.274 58.5136 110.59 48.9002 110.59C40.2181 110.59 35.1783 105.918 32.6201 100.28" fill="#1F2626"/>
<path d="M71 99.0723L79.837 93.7559C82.1633 97.7033 85.1868 100.603 90.5357 100.603C95.0326 100.603 97.9003 98.2668 97.9003 95.0447C97.9003 91.1782 94.9545 89.8087 89.9929 87.554L87.2803 86.3449C79.4499 82.8818 74.2555 78.5321 74.2555 69.3491C74.2555 60.8912 80.4574 54.4468 90.1483 54.4468C97.048 54.4468 102.01 56.9441 105.575 63.4689L97.125 69.1071C95.2644 65.6437 93.2493 64.2746 90.1485 64.2746C86.9699 64.2746 84.9542 66.3689 84.9542 69.1071C84.9542 72.4904 86.9699 73.8601 91.6209 75.9546L94.334 77.1628C103.56 81.2711 108.754 85.4593 108.754 94.8835C108.754 105.034 101.079 110.591 90.7685 110.591C80.6904 110.591 74.1782 105.597 71.0002 99.0723" fill="#1F2626"/>
</g>

<g id="git">
<g clip-path="url(#clip0_2_5868)">
<path d="M103.02 47.8219L57.1758 1.98038C54.5372 -0.6598 50.2552 -0.6598 47.6134 1.98038L38.0937 11.5001L50.1699 23.5763C52.9762 22.6281 56.1943 23.2642 58.4313 25.5012C60.6789 27.7525 61.3106 30.9981 60.3393 33.8134L71.9775 45.452C74.7932 44.482 78.0421 45.1095 80.291 47.3621C83.434 50.5039 83.434 55.596 80.291 58.7399C77.1471 61.8841 72.055 61.8841 68.9095 58.7399C66.5454 56.3733 65.9613 52.9013 67.1582 49.9888L56.3046 39.1352L56.3034 67.6973C57.0902 68.0863 57.8088 68.6002 58.4313 69.2189C61.5743 72.3607 61.5743 77.4532 58.4313 80.5995C55.2874 83.7422 50.1929 83.7422 47.0535 80.5995C43.9105 77.4532 43.9105 72.3611 47.0535 69.2193C47.8067 68.4658 48.7019 67.869 49.6871 67.4635V38.6352C48.7004 38.2324 47.8048 37.6353 47.0535 36.8793C44.6722 34.5013 44.0996 31.0071 45.3198 28.0831L33.4154 16.1775L1.98105 47.6099C-0.660352 50.2525 -0.660352 54.5349 1.98105 57.1755L47.8259 103.018C50.4652 105.658 54.7464 105.658 57.3891 103.018L103.019 57.3884C105.66 54.747 105.66 50.4621 103.019 47.8219" fill="#DE4C36"/>
</g>
<defs>
<clipPath id="clip0_2_5868">
<rect width="105" height="105" fill="white"/>
</clipPath>
</defs>
</g>

<path id="express" d="M37.2184 73.3891V47.1349H38.6425V51.2647C38.8106 51.0816 38.9659 50.8871 39.1073 50.6826C40.2967 48.2149 42.8053 46.6576 45.5441 46.6883C48.791 46.5915 51.4295 47.7934 52.98 50.6826C53.9667 52.4774 54.5097 54.4823 54.5636 56.5298C54.6175 58.5773 54.1808 60.6079 53.2899 62.4522C51.8453 65.69 48.2772 67.2998 44.4572 66.7085C43.2684 66.6074 42.1239 66.2102 41.1281 65.5531C40.1322 64.896 39.3169 63.9999 38.7564 62.9467V73.388L37.2184 73.3891ZM38.6425 56.4221L38.9615 59.505C39.5243 63.0139 41.5988 65.0873 44.856 65.477C46.3856 65.7284 47.955 65.4417 49.2968 64.6655C50.6386 63.8894 51.6698 62.672 52.2144 61.2207C53.4813 58.2017 53.3879 54.7839 51.9638 51.8355C51.3825 50.5345 50.3935 49.4582 49.1464 48.769C47.8992 48.0799 46.4616 47.8154 45.0508 48.0156C43.7266 48.1119 42.4652 48.6183 41.4419 49.4643C40.4187 50.3104 39.6843 51.4541 39.3408 52.7366C39.0376 53.9503 38.8044 55.1805 38.6425 56.421V56.4221ZM83.6409 59.9903C83.4249 61.8388 82.5449 63.546 81.1646 64.7943C79.7842 66.0427 77.9974 66.7472 76.1366 66.7768C70.1646 67.0776 67.362 63.1119 66.9166 58.5355C66.6068 56.0502 67.0102 53.5282 68.0797 51.2636C68.8241 49.7101 70.0438 48.4339 71.5619 47.6199C73.0801 46.8059 74.8181 46.4964 76.5239 46.7362C78.1456 46.874 79.6829 47.5184 80.9182 48.5781C82.1535 49.6377 83.0243 51.0591 83.4073 52.6409C83.7107 54.0819 83.934 55.5386 84.0761 57.0043H68.3919C68.1014 61.1535 70.3309 64.4892 73.4912 65.2935C77.4273 66.2619 80.7916 64.5564 82.0129 60.814C82.284 59.8536 82.7785 59.718 83.6511 59.9903H83.6409ZM68.3805 55.6759H82.4093C82.3216 51.2556 79.5692 48.0429 75.8358 48.0064C71.6206 47.9381 68.5639 51.0221 68.3805 55.6759ZM86.5403 60.0871H87.9154C87.9659 61.1002 88.2949 62.0797 88.8661 62.9178C89.4373 63.756 90.2287 64.4204 91.1531 64.8378C92.3139 65.3602 93.5775 65.6141 94.8499 65.5805C96.1224 65.547 97.3708 65.2269 98.5025 64.6442C99.1193 64.3664 99.6361 63.906 99.9828 63.3251C100.33 62.7442 100.49 62.0709 100.441 61.3961C100.477 60.7454 100.299 60.1007 99.9354 59.56C99.5715 59.0193 99.0413 58.612 98.425 58.3999C96.9121 57.8371 95.3034 57.5272 93.762 57.0328C92.1581 56.5761 90.5897 56.0027 89.0694 55.3171C86.5858 54.1049 86.432 49.3838 89.2437 47.8891C90.6834 47.0767 92.3036 46.6377 93.9565 46.6123C95.6094 46.5868 97.2424 46.9756 98.7064 47.7433C100.522 48.7458 101.526 50.7703 101.228 52.8244H100.048C100.048 52.7674 99.9414 52.7173 99.9414 52.6592C99.7955 48.8996 96.6352 47.7239 93.2425 48.0543C92.2172 48.1682 91.2454 48.4781 90.334 48.9361C89.7861 49.1863 89.3296 49.6006 89.0275 50.1217C88.7254 50.6427 88.5928 51.2448 88.6479 51.8446C88.649 52.4448 88.8361 53.03 89.1833 53.5196C89.5305 54.0092 90.0209 54.3792 90.5869 54.5788C92.0679 55.1222 93.6401 55.4709 95.1724 55.8969L98.875 56.8653C99.7166 57.1415 100.454 57.6667 100.991 58.3714C101.528 59.076 101.838 59.927 101.88 60.8117C102.177 62.7997 101.163 64.7535 99.3695 65.6592C96.1317 67.4912 90.7988 67.007 88.4235 64.6909C87.2079 63.4684 86.53 61.8085 86.5437 60.086L86.5403 60.0871ZM119.328 52.8255H118.038C118.038 52.6512 117.97 52.4837 117.951 52.3504C117.93 51.3837 117.578 50.4535 116.953 49.7157C116.328 48.9779 115.468 48.4774 114.518 48.2981C112.726 47.784 110.814 47.8761 109.079 48.5601C108.393 48.7564 107.79 49.1694 107.358 49.7374C106.926 50.3055 106.69 50.9979 106.685 51.7113C106.66 52.4118 106.878 53.0993 107.302 53.6575C107.726 54.2157 108.33 54.6103 109.011 54.7748L114.906 56.2877C115.543 56.4406 116.171 56.6316 116.785 56.8596C118.665 57.5432 119.941 59.2885 119.998 61.2833C120.026 62.2598 119.758 63.2219 119.23 64.0434C118.701 64.8648 117.936 65.5071 117.036 65.8859C115.668 66.5074 114.185 66.8362 112.682 66.8513C111.18 66.8664 109.691 66.5675 108.31 65.9737C107.175 65.4842 106.217 64.6587 105.565 63.6083C104.914 62.5579 104.599 61.333 104.665 60.0985H105.925C106.399 62.3827 107.967 64.2853 110.119 65.1853C112.272 66.0853 114.729 65.8643 116.686 64.5974C117.273 64.2921 117.761 63.8248 118.091 63.251C118.421 62.6772 118.579 62.0208 118.548 61.3597C118.577 60.7084 118.393 60.0655 118.024 59.5282C117.654 58.991 117.12 58.5889 116.502 58.3828C114.989 57.82 113.38 57.5204 111.839 57.0157C110.226 56.5661 108.648 55.9991 107.118 55.3193C104.693 54.1265 104.5 49.4442 107.263 47.9506C108.721 47.1041 110.373 46.6494 112.058 46.6306C113.743 46.6118 115.405 47.0297 116.881 47.8435C117.725 48.3474 118.405 49.0858 118.837 49.9689C119.269 50.8521 119.435 51.8418 119.314 52.8175L119.328 52.8255ZM34.875 66.3029C34.3673 66.4949 33.807 66.4944 33.2997 66.3015C32.7924 66.1086 32.3732 65.7367 32.1214 65.2559L27.1086 58.3236L26.3818 57.3552L20.5647 65.2662C20.3276 65.7263 19.9312 66.0843 19.4494 66.2734C18.9676 66.4625 18.4335 66.4698 17.9467 66.2938L25.4408 56.2399L18.4685 47.1554C19.5029 46.7817 20.6559 47.1873 21.2312 48.1238L26.4262 55.1416L31.652 48.1511C31.8908 47.6989 32.2876 47.3503 32.7667 47.1716C33.2458 46.9928 33.774 46.9964 34.2506 47.1816L31.5449 50.7714L27.8799 55.5415C27.7782 55.6323 27.6968 55.7436 27.6411 55.8681C27.5854 55.9926 27.5565 56.1274 27.5565 56.2638C27.5565 56.4002 27.5854 56.535 27.6411 56.6595C27.6968 56.7839 27.7782 56.8952 27.8799 56.9861L34.8601 66.3029H34.875ZM66.6944 47.0586V48.4257C65.7138 48.3614 64.7306 48.5034 63.8083 48.8425C62.886 49.1817 62.0451 49.7105 61.3398 50.3947C60.6345 51.079 60.0805 51.9036 59.7135 52.8152C59.3466 53.7268 59.1749 54.7052 59.2095 55.6873C59.2095 58.8803 59.2095 62.0732 59.2095 65.2662V66.3519H57.823V47.144H59.1901V51.0802C60.8671 48.2092 63.4555 47.144 66.7035 47.0666L66.6944 47.0586ZM0.00227889 56.1145L0.612921 53.0989C2.28991 47.1361 9.12545 44.6547 13.8283 48.3482C16.5819 50.5105 17.2689 53.574 17.1344 57.0259H1.62116C1.37053 63.1916 5.81933 66.9147 11.5099 65.0144C13.3851 64.3309 14.7967 62.7724 15.2615 60.8356C15.5623 59.8673 16.059 59.7009 16.9681 59.9812C16.8165 61.1616 16.3992 62.2923 15.7476 63.2882C15.096 64.2841 14.2271 65.1193 13.2063 65.731C11.5197 66.6534 9.58459 67.0189 7.67775 66.7752C5.77091 66.5315 3.98995 65.6911 2.58953 64.3742C1.2042 62.8168 0.367981 60.8482 0.205067 58.769C0.205067 58.4272 0.0911409 58.1082 0.0113928 57.8006C0.00379779 57.2257 0 56.6637 0 56.1145H0.00227889ZM1.64053 55.6976H15.6693C15.5816 51.2283 12.7608 48.0577 8.99899 48.0281C4.81108 47.9711 1.81484 51.0722 1.63028 55.6782L1.64053 55.6976Z" fill="#1F2626"/>

<g id="styled-comp">
<g clip-path="url(#clip0_1_1803)">
<path d="M68.7673 118.279C68.9473 117.872 69.4015 117.589 69.7315 117.246C74.7666 111.967 79.8446 106.735 84.8111 101.391C86.3653 99.9558 87.5662 98.1804 88.32 96.2036C89.0739 94.2269 89.3601 92.1026 89.1563 89.9968C89.0004 89.0951 88.7958 88.2025 88.5435 87.3229C87.1894 88.6084 85.9296 89.7783 84.6611 90.9567C82.6899 92.7908 80.7273 94.6334 78.739 96.4461C77.5665 97.6415 76.059 98.4531 74.4156 98.7737C72.7721 99.0943 71.0701 98.9087 69.5344 98.2416C67.9797 97.6705 66.627 96.6553 65.6443 95.3221C64.6616 93.9889 64.092 92.3965 64.0064 90.7425C63.9604 90.5297 63.8988 90.3206 63.8222 90.1168C62.3095 91.4024 60.8611 92.5851 59.4256 93.8021L29.5877 119.085C29.382 119.261 29.1591 119.479 28.9663 119.65H68.7459L68.6859 119.612C68.4716 119.462 68.583 118.673 68.7673 118.279Z" fill="#FFCEBF"/>
<path d="M27.1436 118.279C27.4974 117.818 27.9245 117.418 28.4077 117.096L69.7 82.0642C72.5168 79.6731 75.3207 77.2691 78.1118 74.8522C78.4567 74.6118 78.727 74.2791 78.8918 73.8924C79.5594 70.9831 79.654 67.9717 79.1703 65.0263C78.7418 65.3262 78.5104 65.4548 78.3132 65.6648C74.9322 68.6901 71.5683 71.7412 68.1702 74.7494C67.0445 75.8824 65.5885 76.6292 64.0116 76.8825C62.4346 77.1359 60.818 76.8826 59.3941 76.1592C57.9414 75.4734 56.7256 74.3709 55.9014 72.992C55.0773 71.6131 54.682 70.0201 54.766 68.4159V67.0275C54.1447 67.4817 53.6905 67.7859 53.2662 68.1287C36.7396 81.3615 20.2159 94.5842 3.69496 107.797C2.94933 108.393 2.05801 109.721 1.08098 108.431C0.103957 107.141 1.59092 106.61 2.34083 106.01C19.953 91.8774 37.5738 77.7576 55.2031 63.6507C58.0742 61.3496 58.2628 60.3854 56.3944 56.7301L55.2803 57.7757C52.2249 60.6168 49.1353 63.4193 46.1271 66.3075C44.8931 67.4978 43.3476 68.3148 41.6691 68.6641C39.9906 69.0135 38.2476 68.8809 36.6412 68.2818C35.0348 67.6827 33.6306 66.6415 32.5908 65.2784C31.5509 63.9153 30.9178 62.2858 30.7646 60.5782C30.1947 61.0067 29.7019 61.3196 29.2348 61.6838L3.09503 81.9443C2.64419 82.3864 2.13005 82.7591 1.5695 83.0498C1.14643 83.1777 0.692134 83.155 0.283936 82.9856V119.671H27.0922C26.9925 119.451 26.9453 119.21 26.9542 118.969C26.9631 118.727 27.028 118.491 27.1436 118.279Z" fill="#FFCEBF"/>
<path d="M99.5652 1.82096C98.8367 4.20782 98.1297 6.59897 97.4912 9.01154C96.9014 10.7164 96.97 12.5802 97.6836 14.2371C98.3971 15.8941 99.704 17.2246 101.348 17.9676C106.376 20.6107 112.042 21.798 117.709 21.3958V2.22806C117.646 1.80781 117.669 1.37914 117.777 0.968207C117.897 0.73576 118.049 0.520916 118.227 0.329712H99.5481C99.8352 0.663958 99.7366 1.25103 99.5652 1.82096Z" fill="#FF6196"/>
<path d="M62.051 42.9976C61.9621 45.137 61.2137 47.1966 59.9084 48.894C55.2418 54.9179 49.8828 60.3719 43.9417 65.1435C42.9836 66.0304 41.7693 66.591 40.4728 66.745C39.1764 66.8989 37.8646 66.6383 36.7254 66.0005C35.5916 65.5161 34.6356 64.6925 33.9887 63.6428C33.3419 62.5932 33.036 61.369 33.113 60.1384C33.2502 58.627 33.8777 57.202 34.8999 56.0803C41.5434 49.7455 48.7414 44.019 56.4074 38.9695C56.9094 38.5758 57.5226 38.3499 58.1601 38.3237C58.7976 38.2976 59.4272 38.4725 59.9598 38.8238C60.6598 39.2585 61.2258 39.8786 61.5949 40.6153C61.9641 41.352 62.1219 42.1766 62.051 42.9976Z" fill="#FF87AF"/>
<path d="M56.9126 68.97C56.8131 68.0228 56.9347 67.0654 57.2678 66.1731C57.6009 65.2809 58.1365 64.478 58.8324 63.8277C65.3372 57.8281 72.3163 52.3638 79.7013 47.4883C79.9241 47.3468 80.1298 47.2054 80.3741 47.0597C81.0192 46.594 81.8008 46.356 82.5959 46.3832C83.3911 46.4103 84.1546 46.7011 84.7664 47.2097C85.3584 47.7112 85.7772 48.3865 85.9634 49.1396C86.1496 49.8928 86.0936 50.6854 85.8034 51.4049C84.8691 54.5168 83.1448 57.3337 80.7983 59.5811C76.0329 64.2758 71.1753 68.8762 66.2286 73.3795C65.4836 74.1456 64.5051 74.6422 63.4469 74.7911C62.3888 74.9401 61.3111 74.7329 60.3836 74.2022C59.409 73.6958 58.5791 72.9499 57.9719 72.0347C57.3648 71.1194 57.0002 70.0648 56.9126 68.97Z" fill="#FF87AF"/>
<path d="M87.8344 71.8015C86.6346 73.0871 85.4004 74.3126 84.2477 75.6282C83.9011 76.1367 83.6136 76.683 83.3907 77.2566C84.0249 77.4451 84.7662 77.9422 85.2804 77.7665C87.8987 76.888 90.4527 75.8339 93.3281 74.724C92.7024 76.1638 92.231 77.4922 91.5668 78.7092C88.8305 83.3078 85.4038 87.4587 81.4066 91.0164C79.8868 92.4819 78.3084 93.8832 76.6715 95.2201C75.8046 95.9395 74.7622 96.4157 73.6509 96.6001C72.5396 96.7844 71.3992 96.6702 70.3465 96.2692C69.2938 95.8681 68.3665 95.1947 67.6595 94.3176C66.9525 93.4406 66.4912 92.3916 66.3227 91.2778C66.254 90.6585 66.3087 90.0317 66.4838 89.4337C66.6589 88.8357 66.9507 88.2784 67.3426 87.7939C73.174 81.4614 79.8384 75.9503 87.1531 71.4115C87.242 71.3771 87.3363 71.3582 87.4316 71.3558L87.8344 71.8015Z" fill="#FF87AF"/>
<path d="M97.6724 54.7335L105.004 22.1659L110.147 23.37L107.494 31.4305C105.017 38.9296 102.51 46.4287 100.093 53.9364C99.6221 55.3248 99.0051 55.5819 97.6724 54.7335Z" fill="#FF6196"/>
<path d="M89.3857 73.8885C90.1614 70.9274 90.9327 68.1892 91.5841 65.421C92.2189 62.7364 93.4263 60.2207 95.1236 58.0461C96.1649 56.6791 97.3348 57.2234 98.5304 57.519C99.636 57.789 99.9145 58.5989 99.9616 59.6616C100.136 62.6005 99.241 65.5031 97.4419 67.8335C95.3002 70.4887 92.5317 72.5695 89.3857 73.8885Z" fill="#FF6196"/>
<path d="M119.944 3.83936C120.008 2.88498 119.983 1.92674 119.871 0.976845C119.783 0.711516 119.607 0.483621 119.374 0.329779C119.184 0.175101 118.961 0.0652523 118.723 0.00838844C118.585 -0.0173228 118.393 0.124089 118.208 0.325493C118.03 0.516698 117.878 0.731542 117.758 0.96399C117.65 1.37492 117.627 1.80359 117.69 2.22384V21.3873C112.023 21.7895 106.357 20.6022 101.329 17.9591C99.685 17.2161 98.3781 15.8856 97.6646 14.2286C96.951 12.5717 96.8824 10.7079 97.4722 9.00304C98.1107 6.59046 98.8178 4.19932 99.5462 1.81246C99.7177 1.24253 99.8162 0.655454 99.5462 0.321208C99.3961 0.158494 99.1888 0.0602123 98.9677 0.0469556C98.6847 0.0500088 98.4105 0.146413 98.1878 0.321208C97.8674 0.512888 97.6121 0.796593 97.4551 1.1354C96.598 3.70652 95.8438 6.30336 95.1882 8.9259C94.9407 9.95936 94.874 11.0279 94.9911 12.0841C95.1569 13.9952 95.8676 15.8186 97.0389 17.3377C98.2102 18.8569 99.7928 20.0081 101.599 20.6545C102.409 20.993 102.884 21.3273 102.657 22.3943C102.344 23.7484 102.04 25.1026 101.732 26.461C99.632 35.6656 97.5436 44.8745 95.4667 54.0877C95.4082 54.4985 95.2275 54.8822 94.9482 55.189C93.5793 56.2771 92.4291 57.6148 91.5586 59.1314C90.4493 61.1327 89.6817 63.3052 89.2875 65.5592C89.2118 66.2782 88.952 66.9655 88.5331 67.5548C88.1143 68.144 87.5505 68.6153 86.8963 68.9231C85.1094 69.8273 83.4682 70.9971 81.4841 72.2141C81.6164 69.8282 81.5906 67.4361 81.407 65.0535C81.256 64.3206 81.288 63.5618 81.5003 62.8442C81.7126 62.1267 82.0985 61.4725 82.624 60.9397C85.2375 58.3506 87.1005 55.1015 88.0148 51.538C88.2878 50.712 88.3627 49.8333 88.2333 48.9729C88.104 48.1126 87.774 47.2948 87.27 46.5856C86.7661 45.8764 86.1023 45.2957 85.3325 44.8905C84.5626 44.4853 83.7081 44.267 82.8382 44.2531C81.4298 44.2374 80.047 44.6304 78.8573 45.3844C74.7683 48.1767 70.7504 51.0715 66.8073 54.0663C64.4633 55.8318 62.2564 57.7858 59.9852 59.637C59.8873 59.5319 59.8025 59.4154 59.7324 59.2899C59.689 58.9744 59.604 58.6661 59.4796 58.3729C57.5812 55.4418 58.8968 53.3121 60.958 51.1223C63.1053 48.8714 64.2919 45.8727 64.2661 42.7619C64.3327 41.1769 63.8363 39.6194 62.8649 38.3653C62.3474 37.7286 61.7096 37.2001 60.988 36.8097C59.9629 36.2487 58.7908 36.0145 57.6289 36.1386C56.467 36.2627 55.3708 36.7391 54.4873 37.5039L53.2917 38.361C50.5621 40.315 47.7981 42.2177 45.1713 44.3089C41.3364 47.3705 37.5841 50.5341 33.9183 53.7963C32.2042 55.309 30.953 57.3744 29.1746 58.78C19.9014 66.1034 10.5297 73.294 1.1922 80.5317C0.871132 80.7232 0.575909 80.9551 0.313735 81.2216C0.286745 81.2606 0.263774 81.3023 0.245172 81.3459C0.0480521 81.8044 -0.119071 82.5629 0.112331 82.8414C0.169054 82.9019 0.23761 82.95 0.313735 82.9828C0.721934 83.1523 1.17623 83.175 1.5993 83.0471C2.15985 82.7563 2.67399 82.3837 3.12483 81.9415L29.2646 61.6811C29.7317 61.3168 30.2245 60.9869 30.7944 60.5755C30.9476 62.2831 31.5807 63.9125 32.6206 65.2757C33.6604 66.6388 35.0646 67.68 36.671 68.2791C38.2774 68.8782 40.0204 69.0107 41.6989 68.6614C43.3774 68.312 44.9229 67.4951 46.1569 66.3048C49.1565 63.4166 52.2547 60.6141 55.3101 57.773L56.4242 56.7274C58.2926 60.3827 58.104 61.3468 55.2329 63.648C37.5893 77.7663 19.9585 91.8875 2.34064 106.012C1.59073 106.611 0.108046 107.156 1.08079 108.433C2.05353 109.71 2.94914 108.394 3.69476 107.798C20.2242 94.5972 36.7423 81.3787 53.2489 68.1432C53.6774 67.8003 54.1273 67.4961 54.7487 67.0419V68.4303C54.6647 70.0345 55.0599 71.6275 55.8841 73.0064C56.7082 74.3853 57.924 75.4879 59.3767 76.1736C60.8007 76.897 62.4173 77.1503 63.9942 76.897C65.5711 76.6436 67.0271 75.8968 68.1528 74.7638C71.551 71.7642 74.9149 68.7045 78.2959 65.6792C78.5102 65.4863 78.7587 65.3406 79.153 65.0407C79.6367 67.9861 79.542 70.9975 78.8744 73.9068C78.7096 74.2936 78.4394 74.6262 78.0945 74.8667C75.3005 77.2807 72.4966 79.6847 69.6826 82.0787L28.4075 117.115C27.9243 117.437 27.4972 117.836 27.1434 118.297C27.0305 118.507 26.9672 118.741 26.9582 118.979C26.9493 119.217 26.9951 119.455 27.092 119.673C27.2856 119.818 27.5094 119.917 27.7468 119.964C27.9842 120.011 28.2291 120.004 28.4633 119.943C28.648 119.889 28.8181 119.794 28.9603 119.664C29.1746 119.493 29.3889 119.274 29.5817 119.099L59.4196 93.8158C60.8551 92.5988 62.3035 91.399 63.8162 90.1306C63.8928 90.3343 63.9544 90.5434 64.0005 90.7562C64.0861 92.4102 64.6556 94.0027 65.6383 95.3358C66.6211 96.669 67.9737 97.6842 69.5284 98.2553C71.0641 98.9225 72.7662 99.108 74.4096 98.7874C76.053 98.4669 77.5606 97.6552 78.733 96.4598C80.7213 94.6472 82.684 92.8045 84.6552 90.9705C85.9407 89.792 87.1834 88.6093 88.5376 87.3366C88.7898 88.2162 88.9944 89.1089 89.1503 90.0106C89.3473 92.1094 89.0578 94.2253 88.3042 96.1941C87.5506 98.1628 86.3532 99.9313 84.8051 101.362C79.8386 106.71 74.7606 111.942 69.7255 117.217C69.3955 117.56 68.9413 117.843 68.7613 118.25C68.5813 118.657 68.4657 119.454 68.6799 119.626L68.7399 119.664C69.1892 119.883 69.6945 119.959 70.1883 119.883C70.3267 119.854 70.45 119.777 70.5354 119.664C70.6554 119.54 70.7711 119.386 70.8868 119.27C74.9663 115.053 79.0672 110.858 83.1168 106.611C84.7513 104.955 86.288 103.205 87.7191 101.371C89.5851 99.3049 90.8224 96.7492 91.2855 94.0042C91.7486 91.2591 91.4181 88.439 90.3331 85.8754C90.2164 85.3037 90.3304 84.7092 90.6502 84.2213C90.9287 83.7413 91.2372 83.2742 91.5543 82.8114C92.569 81.494 93.4141 80.0544 94.0698 78.5262C95.3368 74.7758 97.2817 71.2898 99.8076 68.2417C100.969 66.7695 101.768 65.0448 102.14 63.207C102.512 61.3692 102.447 59.4696 101.95 57.6616C101.775 56.9741 101.775 56.2535 101.95 55.5661C104.119 48.8512 106.351 42.1577 108.562 35.4599L111.519 26.4867L112.432 23.7142C114.377 23.7142 116.211 23.6756 118.037 23.7142C119.554 23.757 120.017 23.0457 120 21.5715C119.91 15.658 119.944 9.74866 119.944 3.83936ZM43.9371 65.1435C42.9791 66.0304 41.7647 66.591 40.4683 66.745C39.1719 66.8989 37.86 66.6383 36.7208 66.0006C35.587 65.5162 34.631 64.6925 33.9842 63.6429C33.3373 62.5932 33.0314 61.369 33.1084 60.1384C33.2457 58.6271 33.8732 57.202 34.8953 56.0803C41.5388 49.7455 48.7368 44.019 56.4028 38.9695C56.8212 38.6737 57.2972 38.4693 57.7998 38.3696C58.1369 38.3074 58.4825 38.3074 58.8196 38.3696C59.2234 38.4482 59.6086 38.6023 59.9552 38.8238C60.656 39.2588 61.2224 39.8796 61.5916 40.6171C61.9607 41.3547 62.1182 42.1802 62.0464 43.0019C61.9576 45.1413 61.2092 47.2009 59.9038 48.8983C55.237 54.9207 49.878 60.3733 43.9371 65.1435ZM66.2202 73.4097C65.4752 74.1758 64.4966 74.6724 63.4385 74.8213C62.3803 74.9703 61.3027 74.7631 60.3752 74.2324C59.3988 73.7249 58.5678 72.977 57.9605 72.0593C57.3533 71.1416 56.9897 70.0844 56.9042 68.9874C56.8047 68.0401 56.9263 67.0828 57.2594 66.1905C57.5925 65.2982 58.1281 64.4954 58.8239 63.8451C65.3288 57.8454 72.3078 52.3811 79.6929 47.5056C79.9157 47.3642 80.1214 47.2228 80.3657 47.0771C81.0107 46.6114 81.7923 46.3734 82.5875 46.4005C83.3826 46.4277 84.1462 46.7185 84.758 47.2271C85.35 47.7285 85.7688 48.4038 85.955 49.157C86.1412 49.9101 86.0852 50.7028 85.795 51.4223C84.8607 54.5342 83.1364 57.351 80.7899 59.5985C76.0633 64.3208 71.1482 68.8674 66.2288 73.3925L66.2202 73.4097ZM91.5501 78.7276C88.8175 83.319 85.3967 87.4638 81.407 91.0176C79.8872 92.4831 78.3088 93.8844 76.6718 95.2214C75.8049 95.9408 74.7625 96.417 73.6512 96.6013C72.5399 96.7856 71.3996 96.6714 70.3469 96.2704C69.2942 95.8694 68.3669 95.1959 67.6599 94.3189C66.9529 93.4419 66.4915 92.3928 66.323 91.279C66.2543 90.6597 66.3091 90.0329 66.4842 89.435C66.6592 88.837 66.9511 88.2796 67.3429 87.7951C73.1743 81.4627 79.8387 75.9515 87.1534 71.4128C87.2424 71.3783 87.3366 71.3594 87.432 71.3571L87.8605 71.7856C86.6606 73.0712 85.4265 74.2967 84.2738 75.6123C83.9272 76.1208 83.6396 76.6671 83.4167 77.2407C84.0509 77.4292 84.7923 77.9263 85.3065 77.7506C87.3763 77.0564 89.4117 76.2508 91.5929 75.3937L93.3541 74.7081C92.6942 76.1651 92.2228 77.4935 91.5586 78.7105L91.5501 78.7276ZM97.4336 67.8646C95.8352 69.8996 93.8317 71.5806 91.5501 72.8012C90.8444 73.1954 90.1202 73.564 89.3775 73.9068C90.1402 70.9885 90.903 68.2846 91.5501 65.5506L91.5758 65.4392C92.2106 62.7546 93.418 60.2389 95.1153 58.0644C96.1566 56.6974 97.3265 57.2416 98.5221 57.5373C99.6277 57.8073 99.9062 58.6172 99.9533 59.6799C100.129 62.6162 99.2372 65.5171 97.4422 67.8475L97.4336 67.8646ZM107.461 31.4404C104.984 38.9395 102.477 46.4386 100.06 53.9463C99.6062 55.3561 98.9892 55.6132 97.6565 54.7648L104.011 26.5124L104.988 22.1758L110.131 23.3799L109.098 26.5124L107.461 31.4404Z" fill="#1F2626"/>
</g>
<defs>
<clipPath id="clip0_1_1803">
<rect width="120" height="120" fill="white"/>
</clipPath>
</defs>
</g>

<g id="typescript">
<path d="M0 60V120H60H120V60V0H60H0V60Z" fill="#007ACC"/>
<path d="M26.5373 60.3979L26.4992 65.3122H34.3087H42.1182L42.1182 87.5026V109.693H47.6421H53.1659V87.5026L53.1659 65.3122H60.9754H68.7849V60.4931C68.7849 57.8264 68.7278 55.5979 68.6516 55.5407C68.5944 55.4645 59.0897 55.4264 47.5659 55.4455L26.5944 55.5026L26.5373 60.3979Z" fill="white"/>
<path d="M96.8265 55.3636C99.8741 56.1255 102.198 57.4779 104.331 59.6874C105.436 60.8684 107.074 63.0208 107.207 63.535C107.246 63.6874 102.026 67.1922 98.8646 69.1541C98.7503 69.2303 98.2931 68.7351 97.7789 67.9731C96.236 65.7255 94.6169 64.7541 92.1408 64.5827C88.5027 64.335 86.1598 66.2398 86.1789 69.4208C86.1789 70.3541 86.3122 70.9065 86.6931 71.6684C87.4931 73.3255 88.9789 74.316 93.6455 76.3351C102.236 80.0303 105.912 82.4684 108.198 85.935C110.75 89.8017 111.322 95.9731 109.588 100.564C107.684 105.554 102.96 108.945 96.3122 110.068C94.255 110.43 89.3789 110.373 87.1693 109.973C82.3503 109.116 77.7789 106.735 74.9598 103.611C73.855 102.392 71.7027 99.2112 71.836 98.9827C71.8931 98.9065 72.3884 98.6017 72.9408 98.2779C73.4741 97.9731 75.4931 96.8112 77.3979 95.7065L80.8455 93.7065L81.5693 94.7731C82.5789 96.316 84.7884 98.4303 86.1217 99.135C89.9503 101.154 95.2074 100.868 97.7979 98.5446C98.9027 97.535 99.3598 96.4874 99.3598 94.9446C99.3598 93.5541 99.1884 92.9446 98.4646 91.897C97.5312 90.5636 95.6265 89.4398 90.2169 87.097C84.0265 84.4303 81.3598 82.7731 78.9217 80.1446C77.5122 78.6208 76.1789 76.1827 75.6265 74.1446C75.1693 72.4493 75.055 68.2017 75.4169 66.4874C76.6931 60.5065 81.2074 56.335 87.7217 55.097C89.836 54.697 94.7503 54.8493 96.8265 55.3636Z" fill="white"/>
</g>
<g id="telegram"><g id="SVGRepo_tracerCarrier" stroke-linecap="round" stroke-linejoin="round"></g><g id="SVGRepo_iconCarrier"> <path d="M12 4C10.4178 4 8.87103 4.46919 7.55544 5.34824C6.23985 6.22729 5.21447 7.47672 4.60897 8.93853C4.00347 10.4003 3.84504 12.0089 4.15372 13.5607C4.4624 15.1126 5.22433 16.538 6.34315 17.6569C7.46197 18.7757 8.88743 19.5376 10.4393 19.8463C11.9911 20.155 13.5997 19.9965 15.0615 19.391C16.5233 18.7855 17.7727 17.7602 18.6518 16.4446C19.5308 15.129 20 13.5823 20 12C20 9.87827 19.1571 7.84344 17.6569 6.34315C16.1566 4.84285 14.1217 4 12 4ZM15.93 9.48L14.62 15.67C14.52 16.11 14.26 16.21 13.89 16.01L11.89 14.53L10.89 15.46C10.8429 15.5215 10.7824 15.5715 10.7131 15.6062C10.6438 15.6408 10.5675 15.6592 10.49 15.66L10.63 13.66L14.33 10.31C14.5 10.17 14.33 10.09 14.09 10.23L9.55 13.08L7.55 12.46C7.12 12.33 7.11 12.03 7.64 11.83L15.35 8.83C15.73 8.72 16.05 8.94 15.93 9.48Z" fill="#000000"></path> </g></g>


<path id="be" d="M9.78442 13.6973C9.78442 14.6396 9.10083 14.9375 8.26099 14.9375H6.05884V12.3545H8.30493C9.21313 12.3594 9.78442 12.7354 9.78442 13.6973ZM9.40845 9.67871C9.40845 8.81445 8.7395 8.60938 7.99731 8.60938H6.06372V10.7969H8.14868C8.88599 10.7969 9.40845 10.4746 9.40845 9.67871ZM15.8684 10.8115C14.9749 10.8115 14.3792 11.3682 14.3206 12.2617H17.3577C17.2747 11.3584 16.8059 10.8115 15.8684 10.8115ZM22.553 3.29688V20.4844C22.553 21.7783 21.5032 22.8281 20.2092 22.8281H3.02173C1.72778 22.8281 0.677979 21.7783 0.677979 20.4844V3.29688C0.677979 2.00293 1.72778 0.953125 3.02173 0.953125H20.2092C21.5032 0.953125 22.553 2.00293 22.553 3.29688ZM13.9446 8.42383H17.7434V7.50098H13.9446V8.42383ZM11.845 13.8096C11.845 12.6328 11.2883 11.6172 10.136 11.29C10.9758 10.8896 11.4153 10.4258 11.4153 9.4834C11.4153 7.61816 10.0237 7.16406 8.41724 7.16406H3.99829V16.5391H8.54419C10.2483 16.5293 11.845 15.7139 11.845 13.8096ZM19.2327 13.0869C19.2327 11.0801 18.0559 9.40527 15.9319 9.40527C13.8616 9.40527 12.4602 10.958 12.4602 12.999C12.4602 15.1133 13.7932 16.5635 15.9319 16.5635C17.553 16.5635 18.6028 15.8359 19.1106 14.2783H17.4651C17.2844 14.8594 16.5569 15.1621 15.9905 15.1621C14.8967 15.1621 14.3254 14.5225 14.3254 13.4385H19.218C19.2229 13.3262 19.2327 13.2041 19.2327 13.0869Z" fill="black"/>

<path id="in" d="M20.8655 0.953125H2.1106C1.25122 0.953125 0.552979 1.66113 0.552979 2.53027V21.251C0.552979 22.1201 1.25122 22.8281 2.1106 22.8281H20.8655C21.7249 22.8281 22.428 22.1201 22.428 21.251V2.53027C22.428 1.66113 21.7249 0.953125 20.8655 0.953125ZM7.16431 19.7031H3.92212V9.26367H7.16919V19.7031H7.16431ZM5.54321 7.83789C4.50317 7.83789 3.66333 6.99316 3.66333 5.95801C3.66333 4.92285 4.50317 4.07812 5.54321 4.07812C6.57837 4.07812 7.4231 4.92285 7.4231 5.95801C7.4231 6.99805 6.58325 7.83789 5.54321 7.83789ZM19.3176 19.7031H16.0754V14.625C16.0754 13.4141 16.051 11.8564 14.3909 11.8564C12.7014 11.8564 12.4426 13.1748 12.4426 14.5371V19.7031H9.20044V9.26367H12.3108V10.6895H12.3547C12.7893 9.86914 13.8489 9.00488 15.426 9.00488C18.7073 9.00488 19.3176 11.168 19.3176 13.9805V19.7031Z" fill="black"/>

<path id="inst" d="M11.5181 6.28027C8.4126 6.28027 5.90771 8.78516 5.90771 11.8906C5.90771 14.9961 8.4126 17.501 11.5181 17.501C14.6235 17.501 17.1284 14.9961 17.1284 11.8906C17.1284 8.78516 14.6235 6.28027 11.5181 6.28027ZM11.5181 15.5381C9.51123 15.5381 7.8706 13.9023 7.8706 11.8906C7.8706 9.87891 9.50635 8.24316 11.5181 8.24316C13.5298 8.24316 15.1655 9.87891 15.1655 11.8906C15.1655 13.9023 13.5249 15.5381 11.5181 15.5381ZM18.6665 6.05078C18.6665 6.77832 18.0806 7.35938 17.3579 7.35938C16.6304 7.35938 16.0493 6.77344 16.0493 6.05078C16.0493 5.32812 16.6353 4.74219 17.3579 4.74219C18.0806 4.74219 18.6665 5.32812 18.6665 6.05078ZM22.3823 7.37891C22.2993 5.62598 21.8989 4.07324 20.6147 2.79395C19.3354 1.51465 17.7827 1.11426 16.0298 1.02637C14.2231 0.923828 8.80811 0.923828 7.00146 1.02637C5.25342 1.10938 3.70068 1.50977 2.4165 2.78906C1.13232 4.06836 0.736816 5.62109 0.648926 7.37402C0.546387 9.18066 0.546387 14.5957 0.648926 16.4023C0.731934 18.1553 1.13232 19.708 2.4165 20.9873C3.70068 22.2666 5.24854 22.667 7.00146 22.7549C8.80811 22.8574 14.2231 22.8574 16.0298 22.7549C17.7827 22.6719 19.3354 22.2715 20.6147 20.9873C21.894 19.708 22.2944 18.1553 22.3823 16.4023C22.4849 14.5957 22.4849 9.18555 22.3823 7.37891ZM20.0483 18.3408C19.6675 19.2979 18.9302 20.0352 17.9683 20.4209C16.5278 20.9922 13.1099 20.8604 11.5181 20.8604C9.92627 20.8604 6.50342 20.9873 5.06787 20.4209C4.11084 20.04 3.37354 19.3027 2.98779 18.3408C2.4165 16.9004 2.54834 13.4824 2.54834 11.8906C2.54834 10.2988 2.42139 6.87598 2.98779 5.44043C3.36865 4.4834 4.10596 3.74609 5.06787 3.36035C6.5083 2.78906 9.92627 2.9209 11.5181 2.9209C13.1099 2.9209 16.5327 2.79395 17.9683 3.36035C18.9253 3.74121 19.6626 4.47852 20.0483 5.44043C20.6196 6.88086 20.4878 10.2988 20.4878 11.8906C20.4878 13.4824 20.6196 16.9053 20.0483 18.3408Z" fill="black"/>

<g id="teleg"><g id="SVGRepo_bgCarrier" stroke-width="0"></g><g id="SVGRepo_tracerCarrier" stroke-linecap="round" stroke-linejoin="round"></g><g id="SVGRepo_iconCarrier"><path d="m12 0c-6.627 0-12 5.373-12 12s5.373 12 12 12 12-5.373 12-12c0-6.627-5.373-12-12-12zm5.894 8.221-1.97 9.28c-.145.658-.537.818-1.084.508l-3-2.21-1.446 1.394c-.14.18-.357.295-.6.295-.002 0-.003 0-.005 0l.213-3.054 5.56-5.022c.24-.213-.054-.334-.373-.121l-6.869 4.326-2.96-.924c-.64-.203-.658-.64.135-.954l11.566-4.458c.538-.196 1.006.128.832.941z"></path></g></g>

<g id="uxm"> 
<style type="text/css">.st0{fill-rule:evenodd;clip-rule:evenodd;}</style>
<g><path class="st0" d="M7.96,24.76h55.38v57.88H7.96V24.76L7.96,24.76z M34.1,33.04h5.14v9.93c0,0.98-0.16,1.91-0.46,2.78 c-0.31,0.88-0.79,1.64-1.44,2.3c-0.66,0.66-1.34,1.11-2.06,1.38c-1,0.37-2.2,0.55-3.6,0.55c-0.81,0-1.69-0.06-2.65-0.17 c-0.96-0.11-1.76-0.34-2.4-0.67c-0.64-0.34-1.23-0.81-1.76-1.44c-0.54-0.62-0.9-1.26-1.1-1.92c-0.32-1.06-0.48-2-0.48-2.82v-9.93 h5.14v10.16c0,0.91,0.25,1.62,0.75,2.13c0.5,0.51,1.2,0.77,2.09,0.77c0.88,0,1.57-0.25,2.08-0.76c0.5-0.5,0.75-1.21,0.75-2.14 V33.04L34.1,33.04z M42.85,33.04h5.17v16.66h-5.17V33.04L42.85,33.04z M12.46,0h46.38c3.43,0,6.56,1.4,8.81,3.65 c2.25,2.25,3.65,5.38,3.65,8.81v97.96c0,3.43-1.4,6.56-3.65,8.81c-2.25,2.25-5.38,3.65-8.81,3.65H12.46c-3.43,0-6.56-1.4-8.81-3.65 C1.4,116.98,0,113.85,0,110.42V12.46C0,9.03,1.4,5.9,3.65,3.65C5.9,1.4,9.03,0,12.46,0L12.46,0z M7.96,93.03h23.42v7.64h6.71v-7.65 h25.26v7.65h4.97V17.82H2.99v82.86l0,0h4.97V93.03L7.96,93.03z M28.94,113c-0.81,0-1.51-0.66-1.51-1.51c0-0.81,0.66-1.51,1.51-1.51 h13.71c0.81,0,1.51,0.66,1.51,1.51c0,0.81-0.66,1.51-1.51,1.51H28.94L28.94,113z M35.65,6.46c1.33,0,2.4,1.07,2.4,2.4 c0,1.33-1.07,2.4-2.4,2.4s-2.4-1.07-2.4-2.4C33.25,7.53,34.32,6.46,35.65,6.46L35.65,6.46z M68.32,103.66H2.99v6.72 c0,2.62,1.07,4.98,2.8,6.67c1.73,1.73,4.09,2.8,6.67,2.8h46.38c2.62,0,4.98-1.07,6.67-2.8c1.73-1.73,2.8-4.09,2.8-6.67V103.66 L68.32,103.66L68.32,103.66z M2.99,14.79h65.33v-2.33c0-2.62-1.07-4.98-2.8-6.67c-1.73-1.73-4.09-2.8-6.67-2.8H12.46 c-2.62,0-4.98,1.07-6.67,2.8c-1.73,1.73-2.8,4.09-2.8,6.67V14.79L2.99,14.79L2.99,14.79z M29.11,57.34h4.99v9.64 c0,0.95-0.15,1.86-0.45,2.7c-0.3,0.85-0.76,1.59-1.4,2.23c-0.64,0.64-1.3,1.08-2,1.34c-0.97,0.36-2.14,0.54-3.5,0.54 c-0.79,0-1.65-0.06-2.58-0.17c-0.93-0.11-1.71-0.33-2.33-0.66c-0.63-0.33-1.2-0.79-1.71-1.39c-0.52-0.6-0.87-1.23-1.07-1.86 c-0.31-1.03-0.46-1.94-0.46-2.73v-9.64h4.99v9.87c0,0.88,0.25,1.57,0.73,2.06c0.49,0.5,1.17,0.75,2.03,0.75 c0.85,0,1.53-0.25,2.02-0.73c0.48-0.48,0.73-1.18,0.73-2.08V57.34L29.11,57.34z M36.29,57.34h5.51l2.87,4.98l2.78-4.98h5.45 l-5.03,7.84l5.5,8.34h-5.63l-3.17-5.2l-3.2,5.2H35.8l5.58-8.43L36.29,57.34L36.29,57.34z"/></g></g>
</svg>
